<svg width="24" height="24" viewBox="0 0 24 24" fill="none" xmlns="http://www.w3.org/2000/svg">
<path d="M14.275 11.9996L6.925 19.3496C6.675 19.5996 6.55417 19.8913 6.5625 20.2246C6.57083 20.558 6.7 20.8496 6.95 21.0996C7.2 21.3496 7.49167 21.4746 7.825 21.4746C8.15833 21.4746 8.45 21.3496 8.7 21.0996L16.4 13.4246C16.6 13.2246 16.75 12.9996 16.85 12.7496C16.95 12.4996 17 12.2496 17 11.9996C17 11.7496 16.95 11.4996 16.85 11.2496C16.75 10.9996 16.6 10.7746 16.4 10.5746L8.7 2.87462C8.45 2.62462 8.15417 2.50379 7.8125 2.51212C7.47083 2.52046 7.175 2.64962 6.925 2.89962C6.675 3.14962 6.55 3.44129 6.55 3.77462C6.55 4.10796 6.675 4.39962 6.925 4.64962L14.275 11.9996Z" fill="#C7C7C7"/>
</svg>
