<svg width="31" height="12" viewBox="0 0 31 12" fill="none" xmlns="http://www.w3.org/2000/svg">
<g clip-path="url(#clip0_73_7561)">
<path d="M2.83167 1.88816L4.71983 0H2.83167H1.88816L0.943513 0.943513V1.88816V4.71983L0 5.66334L0.943513 6.60685V9.43853V10.3832L1.88816 11.3267H2.83167H4.71983L2.83167 9.43853V1.88816Z" fill="#FFE000"/>
<path d="M9.62766 1.88816L7.7395 0H9.62766H10.5712L11.5158 0.943513V1.88816V4.71983L12.4593 5.66334L11.5158 6.60685V9.43853V10.3832L10.5712 11.3267H9.62766H7.7395L9.62766 9.43853V1.88816Z" fill="#FFE000"/>
<path d="M16.4022 4.32225C16.5608 4.32225 16.6842 4.27921 16.7715 4.19426C16.8587 4.10817 16.9017 3.98924 16.8995 3.8352H17.9596C17.9596 4.2305 17.8169 4.55558 17.5315 4.8093C17.2461 5.06301 16.8791 5.18987 16.4294 5.18987C15.9016 5.18987 15.4848 5.02564 15.1812 4.69603C14.8765 4.36642 14.7247 3.91109 14.7247 3.3289V3.28246C14.7247 2.91774 14.7927 2.59606 14.9275 2.31743C15.0623 2.03879 15.2582 1.82358 15.5131 1.67407C15.7679 1.52456 16.0703 1.44867 16.4192 1.44867C16.8915 1.44867 17.2664 1.57893 17.5439 1.83944C17.8214 2.09995 17.9596 2.45221 17.9596 2.89622H16.8995C16.8995 2.70933 16.8541 2.56548 16.7624 2.46581C16.6707 2.36613 16.5472 2.31516 16.3932 2.31516C16.0998 2.31516 15.9288 2.50092 15.8801 2.87243C15.8642 2.99023 15.8563 3.1522 15.8563 3.35948C15.8563 3.72193 15.9004 3.97339 15.9877 4.11271C16.0749 4.25316 16.2142 4.32338 16.4033 4.32338L16.4022 4.32225Z" fill="white"/>
<path d="M18.3934 3.28473C18.3934 2.92454 18.4637 2.604 18.6052 2.32196C18.7457 2.04106 18.9484 1.82472 19.2124 1.67294C19.4763 1.5223 19.7866 1.44641 20.1423 1.44641C20.686 1.44641 21.1141 1.61405 21.4279 1.94818C21.7416 2.28232 21.8979 2.73765 21.8979 3.31418V3.35382C21.8979 3.91676 21.7405 4.36303 21.4267 4.69264C21.1118 5.02338 20.6871 5.18761 20.1502 5.18761C19.6133 5.18761 19.218 5.03357 18.9054 4.72549C18.5917 4.4174 18.4229 4.00058 18.3991 3.47275L18.3957 3.28247L18.3934 3.28473ZM19.525 3.35496C19.525 3.68796 19.5771 3.93262 19.6824 4.08893C19.7877 4.2441 19.9429 4.32226 20.1491 4.32226C20.5523 4.32226 20.7573 4.01417 20.7664 3.398V3.28473C20.7664 2.63798 20.558 2.31404 20.1423 2.31404C19.764 2.31404 19.5589 2.59267 19.5284 3.15108L19.525 3.35496Z" fill="white"/>
<path d="M22.2649 3.29153C22.2649 2.71954 22.3895 2.26987 22.6375 1.94026C22.8856 1.61065 23.2322 1.44642 23.6785 1.44642C24.0024 1.44642 24.2754 1.57328 24.4974 1.82699V0H25.6312V5.12306H24.614L24.5574 4.73569C24.3252 5.03811 24.0296 5.18875 23.6717 5.18875C23.2401 5.18875 22.8981 5.02452 22.6443 4.69491C22.3918 4.3653 22.2649 3.89751 22.2649 3.2904V3.29153ZM23.3964 3.36176C23.3964 4.00172 23.5844 4.32226 23.9605 4.32226C24.2108 4.32226 24.3898 4.21806 24.4974 4.00851V2.63459C24.3943 2.42164 24.2176 2.31404 23.9673 2.31404C23.6184 2.31404 23.4293 2.59381 23.3998 3.15448L23.3964 3.36176Z" fill="white"/>
<path d="M27.9203 5.18988C27.363 5.18988 26.9122 5.02451 26.5679 4.6949C26.2236 4.36416 26.0514 3.93488 26.0514 3.40592V3.31305C26.0514 2.9438 26.1205 2.61872 26.2575 2.33555C26.3946 2.05239 26.5962 1.83491 26.8601 1.67974C27.124 1.52456 27.4378 1.44754 27.8002 1.44754C28.3099 1.44754 28.7132 1.60498 29.0088 1.91986C29.3044 2.23474 29.4517 2.67309 29.4517 3.23602V3.67323H27.2033C27.2441 3.87598 27.3324 4.03455 27.4684 4.15009C27.6043 4.26562 27.7821 4.32339 27.9984 4.32339C28.3564 4.32339 28.6361 4.19879 28.8378 3.9496L29.3543 4.55671C29.2138 4.7504 29.0133 4.90444 28.7551 5.01884C28.4968 5.13324 28.2182 5.19101 27.9214 5.19101L27.9203 5.18988ZM27.7923 2.31516C27.4616 2.31516 27.2645 2.53264 27.2022 2.96871H28.3428V2.8815C28.3473 2.7014 28.3009 2.56209 28.2057 2.46241C28.1106 2.36274 27.9724 2.31403 27.7934 2.31403L27.7923 2.31516Z" fill="white"/>
<path d="M30.4167 4.03116C30.5843 4.03116 30.7225 4.08553 30.8335 4.19426C30.9445 4.303 31 4.44118 31 4.61108C31 4.78098 30.9445 4.91917 30.8335 5.02791C30.7225 5.13664 30.5843 5.19101 30.4167 5.19101C30.249 5.19101 30.1074 5.13664 29.9987 5.02677C29.8888 4.91691 29.8345 4.77872 29.8345 4.61222C29.8345 4.44572 29.8888 4.30753 29.9987 4.19766C30.1086 4.08779 30.2479 4.03342 30.4167 4.03342V4.03116Z" fill="white"/>
<path d="M16.3987 9.14404C16.5573 9.14404 16.6796 9.101 16.7668 9.01605C16.8541 8.9311 16.896 8.81104 16.8937 8.65813H17.9516C17.9516 9.05343 17.8089 9.37737 17.5246 9.62996C17.2403 9.88254 16.8733 10.0094 16.4248 10.0094C15.8981 10.0094 15.4824 9.84516 15.1788 9.51669C14.8753 9.18822 14.7235 8.73402 14.7235 8.15183V8.10539C14.7235 7.7418 14.7915 7.42012 14.9263 7.14148C15.061 6.86285 15.2559 6.64877 15.5107 6.49926C15.7656 6.34975 16.0669 6.27499 16.4146 6.27499C16.8858 6.27499 17.2596 6.40525 17.5359 6.66463C17.8123 6.92401 17.9516 7.27627 17.9516 7.71915H16.8937C16.8937 7.53226 16.8484 7.38954 16.7566 7.28986C16.6649 7.19019 16.5426 7.14035 16.3885 7.14035C16.0963 7.14035 15.9253 7.32611 15.8766 7.69649C15.8607 7.81429 15.8528 7.97626 15.8528 8.18241C15.8528 8.54373 15.8958 8.79518 15.983 8.9345C16.0703 9.07382 16.2084 9.14404 16.3987 9.14404Z" fill="white"/>
<path d="M20.5273 9.94257C20.4876 9.86895 20.4514 9.76135 20.4197 9.61976C20.2124 9.87914 19.9213 10.0094 19.5486 10.0094C19.2066 10.0094 18.9166 9.90633 18.6776 9.70132C18.4386 9.4963 18.3197 9.23805 18.3197 8.9277C18.3197 8.53693 18.4647 8.24244 18.7546 8.04196C19.0446 7.84261 19.4671 7.74293 20.021 7.74293H20.3687V7.55264C20.3687 7.22077 20.2249 7.05427 19.9372 7.05427C19.6687 7.05427 19.5351 7.18566 19.5351 7.44844H18.4069C18.4069 7.10071 18.5564 6.81754 18.8543 6.6012C19.1522 6.38373 19.5328 6.27499 19.9949 6.27499C20.457 6.27499 20.8218 6.38713 21.0902 6.6114C21.3587 6.83566 21.4957 7.14262 21.5025 7.53339V9.12705C21.507 9.45779 21.558 9.71038 21.6565 9.88594V9.94257H20.5284H20.5273ZM19.8205 9.21087C19.9609 9.21087 20.0776 9.18142 20.1705 9.12139C20.2634 9.06136 20.3291 8.9934 20.3698 8.91864V8.34325H20.0414C19.6483 8.34325 19.4524 8.51881 19.4524 8.8688C19.4524 8.97074 19.4875 9.05343 19.5566 9.11686C19.6257 9.18029 19.714 9.212 19.8216 9.212L19.8205 9.21087Z" fill="white"/>
<path d="M23.0815 6.34069L23.1189 6.76318C23.376 6.43697 23.7203 6.27386 24.1541 6.27386C24.6117 6.27386 24.921 6.45509 25.0818 6.81641C25.3276 6.45509 25.6821 6.27386 26.1465 6.27386C26.8805 6.27386 27.2588 6.71561 27.278 7.59795V9.94144H26.1465V7.66818C26.1465 7.48355 26.1148 7.3499 26.0525 7.26495C25.9902 7.18 25.8758 7.13809 25.7104 7.13809C25.4873 7.13809 25.3208 7.23663 25.2109 7.43485L25.2143 7.48129V9.94031H24.0828V7.67384C24.0828 7.48469 24.0522 7.34877 23.9922 7.26495C23.9321 7.18113 23.8166 7.13809 23.6467 7.13809C23.4304 7.13809 23.265 7.23663 23.1506 7.43485V9.94144H22.0225V6.34069H23.0804H23.0815Z" fill="white"/>
<path d="M31 8.16882C31 8.72835 30.8731 9.17462 30.6194 9.50876C30.3657 9.8429 30.0236 10.0094 29.5932 10.0094C29.2602 10.0094 28.9872 9.88821 28.7732 9.64695V11.3278H27.645V6.34182H28.6995L28.7335 6.67483C28.9499 6.40865 29.2342 6.27499 29.5875 6.27499C30.0338 6.27499 30.3815 6.4381 30.6285 6.76544C30.8765 7.09278 31 7.54245 31 8.11445V8.16768V8.16882ZM29.8718 8.09859C29.8718 7.45976 29.6838 7.14035 29.3089 7.14035C29.0405 7.14035 28.8626 7.2355 28.7732 7.42692V8.84502C28.8717 9.04437 29.0518 9.14404 29.3157 9.14404C29.6748 9.14404 29.8605 8.83596 29.8718 8.21865V8.09859Z" fill="white"/>
</g>
<defs>
<clipPath id="clip0_73_7561">
<rect width="31" height="11.3267" fill="white"/>
</clipPath>
</defs>
</svg>
