<svg width="40" height="40" viewBox="0 0 40 40" fill="none" xmlns="http://www.w3.org/2000/svg">
<path d="M10.3846 22.5C9.69714 22.5 9.10867 22.2551 8.61923 21.7654C8.1295 21.276 7.88464 20.6875 7.88464 20C7.88464 19.3125 8.1295 18.724 8.61923 18.2346C9.10867 17.7449 9.69714 17.5 10.3846 17.5C11.0721 17.5 11.6608 17.7449 12.1505 18.2346C12.6399 18.724 12.8846 19.3125 12.8846 20C12.8846 20.6875 12.6399 21.276 12.1505 21.7654C11.6608 22.2551 11.0721 22.5 10.3846 22.5ZM20.0001 22.5C19.3126 22.5 18.7241 22.2551 18.2346 21.7654C17.7449 21.276 17.5001 20.6875 17.5001 20C17.5001 19.3125 17.7449 18.724 18.2346 18.2346C18.7241 17.7449 19.3126 17.5 20.0001 17.5C20.6876 17.5 21.276 17.7449 21.7655 18.2346C22.2552 18.724 22.5001 19.3125 22.5001 20C22.5001 20.6875 22.2552 21.276 21.7655 21.7654C21.276 22.2551 20.6876 22.5 20.0001 22.5ZM29.6155 22.5C28.928 22.5 28.3394 22.2551 27.8496 21.7654C27.3602 21.276 27.1155 20.6875 27.1155 20C27.1155 19.3125 27.3602 18.724 27.8496 18.2346C28.3394 17.7449 28.928 17.5 29.6155 17.5C30.303 17.5 30.8915 17.7449 31.3809 18.2346C31.8706 18.724 32.1155 19.3125 32.1155 20C32.1155 20.6875 31.8706 21.276 31.3809 21.7654C30.8915 22.2551 30.303 22.5 29.6155 22.5Z" fill="#C7C7C7"/>
</svg>
