<svg width="20" height="20" viewBox="0 0 20 20" fill="none" xmlns="http://www.w3.org/2000/svg">
<path d="M7.53996 12.9483L6.81246 15.8377C6.78148 15.9754 6.71523 16.0838 6.61371 16.1629C6.51218 16.242 6.38829 16.2816 6.24204 16.2816C6.04759 16.2816 5.88836 16.2041 5.76433 16.0491C5.64044 15.8942 5.60523 15.7239 5.65871 15.5381L6.306 12.9483H3.931C3.72266 12.9483 3.55523 12.8687 3.42871 12.7095C3.30204 12.5502 3.26544 12.3707 3.31891 12.171C3.3553 12.0246 3.42982 11.9093 3.54246 11.8249C3.65523 11.7405 3.78475 11.6983 3.931 11.6983H6.6185L7.46787 8.30078H5.09287C4.88454 8.30078 4.71711 8.22119 4.59058 8.06203C4.46391 7.90286 4.42732 7.72335 4.48079 7.52349C4.51704 7.37724 4.59155 7.26189 4.70433 7.17744C4.81697 7.093 4.94648 7.05078 5.09287 7.05078H7.78037L8.50808 4.1614C8.53905 4.02363 8.60523 3.91522 8.70662 3.83619C8.80815 3.75703 8.93211 3.71745 9.0785 3.71745C9.27294 3.71745 9.43211 3.79494 9.556 3.94994C9.67989 4.10481 9.71516 4.27515 9.66183 4.46099L9.01433 7.05078H12.46L13.1875 4.1614C13.2184 4.02363 13.2847 3.91522 13.3862 3.83619C13.4877 3.75703 13.6116 3.71745 13.7579 3.71745C13.9523 3.71745 14.1116 3.79494 14.2356 3.94994C14.3595 4.10481 14.3947 4.27515 14.3412 4.46099L13.6939 7.05078H16.0689C16.2772 7.05078 16.4447 7.13036 16.5712 7.28953C16.6979 7.44883 16.7345 7.62835 16.681 7.82807C16.6446 7.97446 16.5701 8.08981 16.4575 8.17411C16.3447 8.25856 16.2152 8.30078 16.0689 8.30078H13.3814L12.532 11.6983H14.907C15.1154 11.6983 15.2828 11.7779 15.4093 11.937C15.536 12.0962 15.5726 12.2757 15.5191 12.4756C15.4829 12.6218 15.4084 12.7372 15.2956 12.8216C15.1829 12.9061 15.0534 12.9483 14.907 12.9483H12.2195L11.4918 15.8377C11.4609 15.9754 11.3947 16.0838 11.2933 16.1629C11.1918 16.242 11.0678 16.2816 10.9214 16.2816C10.727 16.2816 10.5678 16.2041 10.4439 16.0491C10.32 15.8942 10.2847 15.7239 10.3381 15.5381L10.9856 12.9483H7.53996ZM7.85246 11.6983H11.2981L12.1475 8.30078H8.70183L7.85246 11.6983Z" fill="#D4D3D3"/>
</svg>
