<svg width="22" height="22" viewBox="0 0 22 22" fill="none" xmlns="http://www.w3.org/2000/svg">
<path d="M9.75002 12.2498H1.41669C1.06252 12.2498 0.765715 12.13 0.526271 11.8903C0.286548 11.6505 0.166687 11.3536 0.166687 10.9994C0.166687 10.645 0.286548 10.3482 0.526271 10.109C0.765715 9.86956 1.06252 9.74984 1.41669 9.74984H9.75002V1.4165C9.75002 1.06234 9.86988 0.765532 10.1096 0.526087C10.3493 0.286365 10.6463 0.166504 11.0004 0.166504C11.3549 0.166504 11.6517 0.286365 11.8909 0.526087C12.1303 0.765532 12.25 1.06234 12.25 1.4165V9.74984H20.5834C20.9375 9.74984 21.2343 9.8697 21.4738 10.1094C21.7135 10.3491 21.8334 10.6461 21.8334 11.0003C21.8334 11.3547 21.7135 11.6515 21.4738 11.8907C21.2343 12.1301 20.9375 12.2498 20.5834 12.2498H12.25V20.5832C12.25 20.9373 12.1302 21.2341 11.8904 21.4736C11.6507 21.7133 11.3538 21.8332 10.9996 21.8332C10.6452 21.8332 10.3484 21.7133 10.1092 21.4736C9.86974 21.2341 9.75002 20.9373 9.75002 20.5832V12.2498Z" fill="white"/>
</svg>
