<svg width="24" height="24" viewBox="0 0 24 24" fill="none" xmlns="http://www.w3.org/2000/svg">
<path d="M7.6836 5.00054C6.74385 4.98534 5.82728 5.29268 5.08667 5.87134C4.34606 6.45 3.82615 7.26502 3.6136 8.18054C3.39947 9.21952 3.60684 10.301 4.19007 11.1871C4.7733 12.0732 5.68463 12.6913 6.7236 12.9055L6.7506 12.9105C7.01981 12.9705 7.29479 13.0007 7.5706 13.0005V19.0005H9.5706V7.00054H11.5706V19.0005H13.5706V7.00054H15.5706V5.00054H7.6836ZM5.5336 9.00054C5.5336 8.4701 5.74431 7.9614 6.11938 7.58632C6.49446 7.21125 7.00317 7.00054 7.5336 7.00054V11.0005C7.00317 11.0005 6.49446 10.7898 6.11938 10.4148C5.74431 10.0397 5.5336 9.53097 5.5336 9.00054ZM20.4736 17.4915C20.4736 17.7882 20.3856 18.0782 20.2208 18.3249C20.056 18.5716 19.8217 18.7638 19.5476 18.8774C19.2735 18.9909 18.9719 19.0206 18.681 18.9627C18.39 18.9048 18.1227 18.762 17.9129 18.5522C17.7032 18.3424 17.5603 18.0751 17.5024 17.7842C17.4445 17.4932 17.4742 17.1916 17.5878 16.9175C17.7013 16.6434 17.8936 16.4092 18.1402 16.2443C18.3869 16.0795 18.6769 15.9915 18.9736 15.9915C19.3714 15.9915 19.753 16.1496 20.0343 16.4309C20.3156 16.7122 20.4736 17.0937 20.4736 17.4915ZM20.4736 13.4915C20.4736 13.7882 20.3856 14.0782 20.2208 14.3249C20.056 14.5716 19.8217 14.7638 19.5476 14.8774C19.2735 14.9909 18.9719 15.0206 18.681 14.9627C18.39 14.9048 18.1227 14.762 17.9129 14.5522C17.7032 14.3424 17.5603 14.0751 17.5024 13.7842C17.4445 13.4932 17.4742 13.1916 17.5878 12.9175C17.7013 12.6434 17.8936 12.4092 18.1402 12.2443C18.3869 12.0795 18.6769 11.9915 18.9736 11.9915C19.3714 11.9915 19.753 12.1496 20.0343 12.4309C20.3156 12.7122 20.4736 13.0937 20.4736 13.4915ZM20.4736 9.49154C20.4736 9.78821 20.3856 10.0782 20.2208 10.3249C20.056 10.5716 19.8217 10.7638 19.5476 10.8774C19.2735 10.9909 18.9719 11.0206 18.681 10.9627C18.39 10.9048 18.1227 10.762 17.9129 10.5522C17.7032 10.3424 17.5603 10.0751 17.5024 9.78417C17.4445 9.4932 17.4742 9.1916 17.5878 8.91751C17.7013 8.64342 17.8936 8.40916 18.1402 8.24433C18.3869 8.07951 18.6769 7.99154 18.9736 7.99154C19.3714 7.99154 19.753 8.14957 20.0343 8.43088C20.3156 8.71218 20.4736 9.09371 20.4736 9.49154Z" fill="black"/>
</svg>
