<svg width="20" height="20" viewBox="0 0 20 20" fill="none" xmlns="http://www.w3.org/2000/svg">
<path d="M7.53977 12.9496L6.81227 15.839C6.7813 15.9767 6.71505 16.0851 6.61352 16.1642C6.51199 16.2433 6.38811 16.2829 6.24186 16.2829C6.04741 16.2829 5.88818 16.2054 5.76415 16.0504C5.64026 15.8956 5.60505 15.7252 5.65852 15.5394L6.30581 12.9496H3.93081C3.72248 12.9496 3.55505 12.87 3.42852 12.7108C3.30186 12.5515 3.26526 12.372 3.31873 12.1723C3.35512 12.0259 3.42963 11.9106 3.54227 11.8262C3.65505 11.7418 3.78456 11.6996 3.93081 11.6996H6.61831L7.46769 8.30208H5.09269C4.88436 8.30208 4.71693 8.2225 4.5904 8.06333C4.46373 7.90417 4.42713 7.72465 4.48061 7.52479C4.51686 7.37854 4.59137 7.26319 4.70415 7.17875C4.81679 7.0943 4.9463 7.05208 5.09269 7.05208H7.78019L8.5079 4.16271C8.53887 4.02493 8.60505 3.91653 8.70644 3.8375C8.80797 3.75833 8.93193 3.71875 9.07831 3.71875C9.27276 3.71875 9.43193 3.79625 9.55581 3.95125C9.6797 4.10611 9.71498 4.27646 9.66165 4.46229L9.01415 7.05208H12.4598L13.1873 4.16271C13.2182 4.02493 13.2845 3.91653 13.386 3.8375C13.4876 3.75833 13.6114 3.71875 13.7577 3.71875C13.9521 3.71875 14.1114 3.79625 14.2354 3.95125C14.3593 4.10611 14.3945 4.27646 14.341 4.46229L13.6937 7.05208H16.0687C16.2771 7.05208 16.4445 7.13167 16.571 7.29083C16.6977 7.45014 16.7343 7.62965 16.6808 7.82937C16.6444 7.97576 16.5699 8.09111 16.4573 8.17542C16.3445 8.25986 16.215 8.30208 16.0687 8.30208H13.3812L12.5319 11.6996H14.9069C15.1152 11.6996 15.2826 11.7792 15.4091 11.9383C15.5358 12.0975 15.5724 12.277 15.5189 12.4769C15.4827 12.6231 15.4082 12.7385 15.2954 12.8229C15.1828 12.9074 15.0532 12.9496 14.9069 12.9496H12.2194L11.4916 15.839C11.4607 15.9767 11.3945 16.0851 11.2931 16.1642C11.1916 16.2433 11.0676 16.2829 10.9212 16.2829C10.7268 16.2829 10.5676 16.2054 10.4437 16.0504C10.3198 15.8956 10.2846 15.7252 10.3379 15.5394L10.9854 12.9496H7.53977ZM7.85227 11.6996H11.2979L12.1473 8.30208H8.70165L7.85227 11.6996Z" fill="#D4D3D3"/>
</svg>
