<svg width="24" height="24" viewBox="0 0 24 24" fill="none" xmlns="http://www.w3.org/2000/svg">
<path d="M1.79785 17.0837C1.79785 16.5683 1.93085 16.1084 2.19685 15.7039C2.46285 15.2994 2.8181 14.9847 3.2626 14.7599C4.21294 14.2951 5.16852 13.9367 6.12935 13.6847C7.09035 13.4328 8.14644 13.3069 9.2976 13.3069C10.4489 13.3069 11.505 13.4328 12.4659 13.6847C13.4269 13.9367 14.3825 14.2951 15.3329 14.7599C15.7774 14.9847 16.1326 15.2994 16.3986 15.7039C16.6646 16.1084 16.7976 16.5683 16.7976 17.0837V17.7877C16.7976 18.1902 16.6499 18.544 16.3544 18.8492C16.0589 19.1543 15.7002 19.3069 15.2784 19.3069H3.31685C2.89518 19.3069 2.5366 19.1592 2.2411 18.8637C1.9456 18.568 1.79785 18.2093 1.79785 17.7877V17.0837ZM20.6824 19.3069H18.4111C18.5368 19.0774 18.6326 18.8332 18.6986 18.5742C18.7646 18.3152 18.7976 18.053 18.7976 17.7877V16.9607C18.7976 16.3043 18.6369 15.6787 18.3156 15.0839C17.9941 14.4892 17.5381 13.979 16.9476 13.5532C17.6181 13.6532 18.2547 13.8079 18.8574 14.0174C19.4599 14.2271 20.0349 14.4748 20.5824 14.7607C21.099 15.0363 21.498 15.3612 21.7794 15.7354C22.0607 16.1094 22.2014 16.5178 22.2014 16.9607V17.7877C22.2014 18.2093 22.0536 18.568 21.7581 18.8637C21.4626 19.1592 21.104 19.3069 20.6824 19.3069ZM9.2976 11.6914C8.3351 11.6914 7.51119 11.3487 6.82585 10.6634C6.14052 9.97791 5.79785 9.15391 5.79785 8.19141C5.79785 7.22891 6.14052 6.40499 6.82585 5.71966C7.51119 5.03416 8.3351 4.69141 9.2976 4.69141C10.2601 4.69141 11.0841 5.03416 11.7696 5.71966C12.4549 6.40499 12.7976 7.22891 12.7976 8.19141C12.7976 9.15391 12.4549 9.97791 11.7696 10.6634C11.0841 11.3487 10.2601 11.6914 9.2976 11.6914ZM17.9321 8.19141C17.9321 9.15391 17.5894 9.97791 16.9041 10.6634C16.2188 11.3487 15.3949 11.6914 14.4324 11.6914C14.3195 11.6914 14.1759 11.6786 14.0016 11.6529C13.8271 11.6272 13.6835 11.5991 13.5709 11.5684C13.9652 11.0942 14.2683 10.5682 14.4801 9.99041C14.6918 9.41257 14.7976 8.81257 14.7976 8.19041C14.7976 7.56807 14.6896 6.97032 14.4736 6.39716C14.2576 5.82416 13.9567 5.29666 13.5709 4.81466C13.7144 4.76332 13.8579 4.72999 14.0016 4.71466C14.1451 4.69916 14.2887 4.69141 14.4324 4.69141C15.3949 4.69141 16.2188 5.03416 16.9041 5.71966C17.5894 6.40499 17.9321 7.22891 17.9321 8.19141ZM3.2976 17.8069H15.2976V17.0837C15.2976 16.8748 15.2454 16.689 15.1409 16.5262C15.0365 16.3633 14.8709 16.221 14.6439 16.0992C13.8209 15.6748 12.9734 15.3533 12.1016 15.1347C11.2298 14.9162 10.2951 14.8069 9.2976 14.8069C8.30027 14.8069 7.36569 14.9162 6.49385 15.1347C5.62202 15.3533 4.7746 15.6748 3.9516 16.0992C3.7246 16.221 3.55885 16.3633 3.45435 16.5262C3.34985 16.689 3.2976 16.8748 3.2976 17.0837V17.8069ZM9.2976 10.1914C9.8476 10.1914 10.3184 9.99557 10.7101 9.60391C11.1018 9.21224 11.2976 8.74141 11.2976 8.19141C11.2976 7.64141 11.1018 7.17057 10.7101 6.77891C10.3184 6.38724 9.8476 6.19141 9.2976 6.19141C8.7476 6.19141 8.27677 6.38724 7.8851 6.77891C7.49344 7.17057 7.2976 7.64141 7.2976 8.19141C7.2976 8.74141 7.49344 9.21224 7.8851 9.60391C8.27677 9.99557 8.7476 10.1914 9.2976 10.1914Z" fill="white"/>
</svg>
