<svg width="7" height="12" viewBox="0 0 7 12" fill="none" xmlns="http://www.w3.org/2000/svg">
<path d="M2.79998 6.00078L6.69998 2.10078C6.88331 1.91745 6.97498 1.68411 6.97498 1.40078C6.97498 1.11745 6.88331 0.884115 6.69998 0.700781C6.51664 0.517448 6.28331 0.425781 5.99998 0.425781C5.71664 0.425781 5.48331 0.517448 5.29998 0.700781L0.699975 5.30078C0.599975 5.40078 0.529142 5.50911 0.487475 5.62578C0.445809 5.74245 0.424975 5.86745 0.424975 6.00078C0.424975 6.13411 0.445809 6.25911 0.487475 6.37578C0.529142 6.49245 0.599975 6.60078 0.699975 6.70078L5.29998 11.3008C5.48331 11.4841 5.71664 11.5758 5.99998 11.5758C6.28331 11.5758 6.51664 11.4841 6.69998 11.3008C6.88331 11.1174 6.97498 10.8841 6.97498 10.6008C6.97498 10.3174 6.88331 10.0841 6.69998 9.90078L2.79998 6.00078Z" fill="#333333"/>
</svg>
