<svg width="7" height="12" viewBox="0 0 7 12" fill="none" xmlns="http://www.w3.org/2000/svg">
<path d="M4.59999 6.00078L0.699988 2.10078C0.516654 1.91745 0.424988 1.68411 0.424988 1.40078C0.424988 1.11745 0.516654 0.884115 0.699988 0.700781C0.883321 0.517448 1.11665 0.425781 1.39999 0.425781C1.68332 0.425781 1.91665 0.517448 2.09999 0.700781L6.69999 5.30078C6.79999 5.40078 6.87082 5.50911 6.91249 5.62578C6.95415 5.74245 6.97499 5.86745 6.97499 6.00078C6.97499 6.13411 6.95415 6.25911 6.91249 6.37578C6.87082 6.49245 6.79999 6.60078 6.69999 6.70078L2.09999 11.3008C1.91665 11.4841 1.68332 11.5758 1.39999 11.5758C1.11665 11.5758 0.883321 11.4841 0.699988 11.3008C0.516654 11.1174 0.424988 10.8841 0.424988 10.6008C0.424988 10.3174 0.516654 10.0841 0.699988 9.90078L4.59999 6.00078Z" fill="#C7C7C7"/>
</svg>
