<svg width="24" height="24" viewBox="0 0 24 24" fill="none" xmlns="http://www.w3.org/2000/svg">
<rect width="24" height="24" rx="12" fill="black" fill-opacity="0.4"/>
<path d="M12 12.7015L8.61801 16.0837C8.52567 16.1759 8.40962 16.2231 8.26984 16.2254C8.13017 16.2275 8.01201 16.1803 7.91534 16.0837C7.81879 15.987 7.77051 15.8699 7.77051 15.7324C7.77051 15.5948 7.81879 15.4777 7.91534 15.381L11.2975 11.999L7.91534 8.61703C7.82312 8.5247 7.7759 8.40864 7.77367 8.26886C7.77156 8.1292 7.81879 8.01103 7.91534 7.91436C8.01201 7.81781 8.12912 7.76953 8.26667 7.76953C8.40423 7.76953 8.52134 7.81781 8.61801 7.91436L12 11.2965L15.382 7.91436C15.4743 7.82214 15.5904 7.77492 15.7302 7.7727C15.8698 7.77059 15.988 7.81781 16.0847 7.91436C16.1812 8.01103 16.2295 8.12814 16.2295 8.2657C16.2295 8.40325 16.1812 8.52037 16.0847 8.61703L12.7025 11.999L16.0847 15.381C16.1769 15.4734 16.2241 15.5894 16.2263 15.7292C16.2285 15.8689 16.1812 15.987 16.0847 16.0837C15.988 16.1803 15.8709 16.2285 15.7333 16.2285C15.5958 16.2285 15.4787 16.1803 15.382 16.0837L12 12.7015Z" fill="white"/>
</svg>
