<svg width="40" height="40" viewBox="0 0 40 40" fill="none" xmlns="http://www.w3.org/2000/svg">
<g filter="url(#filter0_d_3_1314)">
<rect x="8" y="8" width="24" height="24" rx="12" fill="white"/>
<path d="M19.9998 21.3998L15.0998 26.2998C14.9165 26.4831 14.6831 26.5748 14.3998 26.5748C14.1165 26.5748 13.8831 26.4831 13.6998 26.2998C13.5165 26.1165 13.4248 25.8831 13.4248 25.5998C13.4248 25.3165 13.5165 25.0831 13.6998 24.8998L18.5998 19.9998L13.6998 15.0998C13.5165 14.9165 13.4248 14.6831 13.4248 14.3998C13.4248 14.1165 13.5165 13.8831 13.6998 13.6998C13.8831 13.5165 14.1165 13.4248 14.3998 13.4248C14.6831 13.4248 14.9165 13.5165 15.0998 13.6998L19.9998 18.5998L24.8998 13.6998C25.0831 13.5165 25.3165 13.4248 25.5998 13.4248C25.8831 13.4248 26.1165 13.5165 26.2998 13.6998C26.4831 13.8831 26.5748 14.1165 26.5748 14.3998C26.5748 14.6831 26.4831 14.9165 26.2998 15.0998L21.3998 19.9998L26.2998 24.8998C26.4831 25.0831 26.5748 25.3165 26.5748 25.5998C26.5748 25.8831 26.4831 26.1165 26.2998 26.2998C26.1165 26.4831 25.8831 26.5748 25.5998 26.5748C25.3165 26.5748 25.0831 26.4831 24.8998 26.2998L19.9998 21.3998Z" fill="black"/>
</g>
<defs>
<filter id="filter0_d_3_1314" x="0" y="0" width="40" height="40" filterUnits="userSpaceOnUse" color-interpolation-filters="sRGB">
<feFlood flood-opacity="0" result="BackgroundImageFix"/>
<feColorMatrix in="SourceAlpha" type="matrix" values="0 0 0 0 0 0 0 0 0 0 0 0 0 0 0 0 0 0 127 0" result="hardAlpha"/>
<feOffset/>
<feGaussianBlur stdDeviation="4"/>
<feComposite in2="hardAlpha" operator="out"/>
<feColorMatrix type="matrix" values="0 0 0 0 0 0 0 0 0 0 0 0 0 0 0 0 0 0 0.1 0"/>
<feBlend mode="normal" in2="BackgroundImageFix" result="effect1_dropShadow_3_1314"/>
<feBlend mode="normal" in="SourceGraphic" in2="effect1_dropShadow_3_1314" result="shape"/>
</filter>
</defs>
</svg>
