<svg width="153" height="24" viewBox="0 0 153 24" fill="none" xmlns="http://www.w3.org/2000/svg">
<g clip-path="url(#clip0_25_1802)">
<path d="M38.0247 15.8025C38.5933 15.8025 39.0298 15.6505 39.3422 15.3465C39.6545 15.0425 39.8067 14.6145 39.7987 14.0705H43.5829C43.5829 15.4825 43.0743 16.6385 42.0572 17.5425C41.0401 18.4465 39.7266 18.8985 38.1248 18.8985C36.2427 18.8985 34.757 18.3105 33.6718 17.1385C32.5866 15.9665 32.042 14.3425 32.042 12.2665V12.0985C32.042 10.7985 32.2823 9.6505 32.7668 8.6585C33.2513 7.6625 33.9441 6.8985 34.8571 6.3665C35.7702 5.8345 36.8434 5.5625 38.0888 5.5625C39.7746 5.5625 41.1081 6.0265 42.1012 6.9545C43.0903 7.8825 43.5869 9.1385 43.5869 10.7225H39.8027C39.8027 10.0585 39.6385 9.5465 39.3101 9.1905C38.9818 8.8345 38.5453 8.6545 37.9926 8.6545C36.9475 8.6545 36.3348 9.3145 36.1626 10.6385C36.1065 11.0585 36.0785 11.6385 36.0785 12.3745C36.0785 13.6665 36.2347 14.5625 36.547 15.0625C36.8594 15.5625 37.3519 15.8105 38.0327 15.8105L38.0247 15.8025Z" fill="black"/>
<path d="M45.125 12.1066C45.125 10.8226 45.3773 9.67859 45.8778 8.67859C46.3824 7.67459 47.1032 6.90659 48.0443 6.36659C48.9853 5.82659 50.0906 5.55859 51.36 5.55859C53.2981 5.55859 54.8279 6.15459 55.9451 7.34659C57.0624 8.53859 57.623 10.1626 57.623 12.2146V12.3586C57.623 14.3626 57.0624 15.9546 55.9411 17.1306C54.8198 18.3066 53.3021 18.8946 51.384 18.8946C49.4659 18.8946 48.0603 18.3466 46.943 17.2466C45.8258 16.1506 45.2211 14.6626 45.137 12.7826L45.125 12.1066ZM49.1615 12.3546C49.1615 13.5426 49.3497 14.4146 49.7261 14.9706C50.1026 15.5266 50.6552 15.8026 51.392 15.8026C52.8296 15.8026 53.5624 14.7066 53.5945 12.5106V12.1066C53.5945 9.80259 52.8536 8.64659 51.368 8.64659C50.0185 8.64659 49.2897 9.64259 49.1775 11.6306L49.1655 12.3546H49.1615Z" fill="black"/>
<path d="M58.9404 12.1304C58.9404 10.0944 59.3849 8.49044 60.2699 7.31844C61.1549 6.14644 62.3923 5.55844 63.9821 5.55844C65.1394 5.55844 66.1125 6.01044 66.9053 6.91444V0.398438H70.9539V18.6544H67.3258L67.1216 17.2744C66.2927 18.3504 65.2395 18.8904 63.962 18.8904C62.4203 18.8904 61.199 18.3024 60.298 17.1304C59.3969 15.9584 58.9444 14.2904 58.9444 12.1264L58.9404 12.1304ZM62.9769 12.3784C62.9769 14.6584 63.6457 15.8024 64.9872 15.8024C65.8802 15.8024 66.5209 15.4304 66.9013 14.6864V9.79044C66.5329 9.03044 65.9042 8.65044 65.0112 8.65044C63.7658 8.65044 63.0931 9.65044 62.989 11.6464L62.9769 12.3824V12.3784Z" fill="black"/>
<path d="M79.1147 18.8902C77.1285 18.8902 75.5187 18.3022 74.2893 17.1262C73.0599 15.9502 72.4473 14.4182 72.4473 12.5342V12.2022C72.4473 10.8862 72.6915 9.7262 73.1841 8.7182C73.6766 7.7102 74.3894 6.9342 75.3345 6.3822C76.2795 5.8302 77.3928 5.5542 78.6862 5.5542C80.5043 5.5542 81.9419 6.1142 82.9951 7.2342C84.0482 8.3542 84.5768 9.9182 84.5768 11.9222V13.4782H76.5559C76.7 14.1982 77.0164 14.7662 77.5009 15.1782C77.9855 15.5902 78.6182 15.7982 79.391 15.7982C80.6685 15.7982 81.6656 15.3542 82.3824 14.4662L84.2244 16.6302C83.7199 17.3182 83.0111 17.8702 82.086 18.2782C81.165 18.6862 80.1719 18.8902 79.1107 18.8902H79.1147ZM78.6582 8.6462C77.4769 8.6462 76.7761 9.4222 76.5519 10.9742H80.6244V10.6662C80.6404 10.0262 80.4762 9.5262 80.1319 9.1742C79.7875 8.8222 79.2989 8.6462 78.6582 8.6462Z" fill="black"/>
<path d="M89.2776 14.7624C89.8743 14.7624 90.3709 14.9544 90.7633 15.3424C91.1597 15.7304 91.356 16.2224 91.356 16.8264C91.356 17.4304 91.1597 17.9224 90.7633 18.3104C90.3669 18.6984 89.8743 18.8904 89.2776 18.8904C88.681 18.8904 88.1764 18.6944 87.784 18.3024C87.3915 17.9104 87.1953 17.4184 87.1953 16.8224C87.1953 16.2264 87.3915 15.7344 87.784 15.3424C88.1764 14.9504 88.673 14.7544 89.2776 14.7544V14.7624Z" fill="black"/>
<path d="M99.9739 15.8025C100.543 15.8025 100.979 15.6505 101.291 15.3465C101.604 15.0425 101.756 14.6145 101.748 14.0705H105.532C105.532 15.4825 105.024 16.6385 104.006 17.5425C102.989 18.4465 101.676 18.8985 100.074 18.8985C98.1919 18.8985 96.7062 18.3105 95.621 17.1385C94.5358 15.9665 93.9912 14.3425 93.9912 12.2665V12.0985C93.9912 10.7985 94.2315 9.6505 94.716 8.6585C95.2006 7.6625 95.8933 6.8985 96.8064 6.3665C97.7194 5.8345 98.7926 5.5625 100.038 5.5625C101.724 5.5625 103.057 6.0265 104.05 6.9545C105.04 7.8825 105.536 9.1385 105.536 10.7225H101.752C101.752 10.0585 101.588 9.5465 101.259 9.1905C100.931 8.8345 100.494 8.6545 99.9419 8.6545C98.8967 8.6545 98.284 9.3145 98.1118 10.6385C98.0558 11.0585 98.0277 11.6385 98.0277 12.3745C98.0277 13.6665 98.1839 14.5625 98.4962 15.0625C98.8086 15.5625 99.3011 15.8105 99.9819 15.8105L99.9739 15.8025Z" fill="black"/>
<path d="M114.731 18.6546C114.586 18.3946 114.458 18.0106 114.346 17.5026C113.605 18.4306 112.568 18.8946 111.235 18.8946C110.013 18.8946 108.976 18.5266 108.123 17.7946C107.27 17.0626 106.842 16.1386 106.842 15.0306C106.842 13.6346 107.362 12.5826 108.4 11.8706C109.437 11.1586 110.946 10.8026 112.925 10.8026H114.17V10.1226C114.17 8.93459 113.653 8.34259 112.624 8.34259C111.667 8.34259 111.187 8.81059 111.187 9.75059H107.15C107.15 8.50659 107.683 7.49859 108.748 6.72259C109.813 5.94659 111.171 5.55859 112.824 5.55859C114.478 5.55859 115.78 5.95859 116.741 6.75859C117.698 7.55859 118.191 8.65459 118.215 10.0506V15.7426C118.231 16.9226 118.415 17.8266 118.767 18.4506V18.6546H114.731ZM112.204 16.0386C112.708 16.0386 113.125 15.9306 113.453 15.7186C113.782 15.5066 114.022 15.2626 114.166 14.9946V12.9386H112.993C111.587 12.9386 110.886 13.5626 110.886 14.8146C110.886 15.1786 111.01 15.4746 111.259 15.6986C111.507 15.9226 111.823 16.0386 112.204 16.0386Z" fill="black"/>
<path d="M123.86 5.7942L123.993 7.3022C124.91 6.1382 126.143 5.5542 127.693 5.5542C129.331 5.5542 130.436 6.1982 131.008 7.4902C131.885 6.1982 133.155 5.5542 134.817 5.5542C137.444 5.5542 138.793 7.1302 138.865 10.2862V18.6542H134.817V10.5382C134.817 9.8822 134.705 9.4022 134.48 9.0982C134.256 8.7942 133.852 8.6462 133.259 8.6462C132.462 8.6462 131.865 8.9982 131.477 9.7022L131.489 9.8702V18.6542H127.44V10.5622C127.44 9.8902 127.332 9.4022 127.116 9.1022C126.9 8.8022 126.491 8.6502 125.883 8.6502C125.11 8.6502 124.517 9.0022 124.113 9.7062V18.6542H120.076V5.7942H123.86Z" fill="black"/>
<path d="M152.172 12.3182C152.172 14.3142 151.72 15.9102 150.815 17.1022C149.91 18.2942 148.684 18.8902 147.147 18.8902C145.957 18.8902 144.98 18.4582 144.215 17.5942V23.5982H140.179V5.7942H143.951L144.071 6.9822C144.844 6.0302 145.861 5.5542 147.122 5.5542C148.72 5.5542 149.962 6.1382 150.847 7.3062C151.732 8.4742 152.176 10.0822 152.176 12.1262V12.3182H152.172ZM148.136 12.0702C148.136 9.7902 147.467 8.6462 146.125 8.6462C145.168 8.6462 144.528 8.9862 144.211 9.6702V14.7342C144.564 15.4462 145.208 15.8022 146.149 15.8022C147.435 15.8022 148.096 14.7022 148.136 12.4982V12.0702Z" fill="black"/>
<path d="M6.00672 4L10.0112 0H6.00672H4.00448L2.00224 2V4V10L0 12L2.00224 14V20V22L4.00448 24H6.00672H10.0112L6.00672 20V4Z" fill="#FFE000"/>
<path d="M20.0221 4L16.0176 0H20.0221H22.0243L24.0265 2V4V10L26.0288 12L24.0265 14V20V22L22.0243 24H20.0221H16.0176L20.0221 20V4Z" fill="#FFE000"/>
</g>
<defs>
<clipPath id="clip0_25_1802">
<rect width="152.17" height="24" fill="white"/>
</clipPath>
</defs>
</svg>
