<svg width="40" height="40" viewBox="0 0 40 40" fill="none" xmlns="http://www.w3.org/2000/svg">
<rect width="40" height="40" rx="20" fill="#E4E4E4"/>
<path d="M20 19.4871C18.3958 19.4871 17.0226 18.916 15.8804 17.7738C14.7379 16.6313 14.1667 15.2579 14.1667 13.6538C14.1667 12.0496 14.7379 10.6764 15.8804 9.53418C17.0226 8.39168 18.3958 7.82043 20 7.82043C21.6042 7.82043 22.9774 8.39168 24.1196 9.53418C25.2621 10.6764 25.8333 12.0496 25.8333 13.6538C25.8333 15.2579 25.2621 16.6313 24.1196 17.7738C22.9774 18.916 21.6042 19.4871 20 19.4871ZM7.5 29.6475V28.4742C7.5 27.6581 7.72167 26.9022 8.165 26.2067C8.60833 25.5111 9.20083 24.9764 9.9425 24.6025C11.5897 23.795 13.2515 23.1893 14.9279 22.7854C16.6043 22.3815 18.295 22.1796 20 22.1796C21.705 22.1796 23.3957 22.3815 25.0721 22.7854C26.7485 23.1893 28.4103 23.795 30.0575 24.6025C30.7992 24.9764 31.3917 25.5111 31.835 26.2067C32.2783 26.9022 32.5 27.6581 32.5 28.4742V29.6475C32.5 30.3503 32.2538 30.9481 31.7613 31.4409C31.2688 31.9334 30.671 32.1796 29.9679 32.1796H10.0321C9.32903 32.1796 8.73125 31.9334 8.23875 31.4409C7.74625 30.9481 7.5 30.3503 7.5 29.6475ZM10 29.6796H30V28.4742C30 28.1367 29.9022 27.8242 29.7067 27.5367C29.5111 27.2495 29.2457 27.015 28.9104 26.8334C27.4743 26.1261 26.0101 25.5903 24.5179 25.2259C23.0254 24.8617 21.5194 24.6796 20 24.6796C18.4806 24.6796 16.9746 24.8617 15.4821 25.2259C13.9899 25.5903 12.5257 26.1261 11.0896 26.8334C10.7543 27.015 10.4889 27.2495 10.2933 27.5367C10.0978 27.8242 10 28.1367 10 28.4742V29.6796ZM20 16.9871C20.9167 16.9871 21.7014 16.6607 22.3542 16.0079C23.0069 15.3552 23.3333 14.5704 23.3333 13.6538C23.3333 12.7371 23.0069 11.9524 22.3542 11.2996C21.7014 10.6468 20.9167 10.3204 20 10.3204C19.0833 10.3204 18.2986 10.6468 17.6458 11.2996C16.9931 11.9524 16.6667 12.7371 16.6667 13.6538C16.6667 14.5704 16.9931 15.3552 17.6458 16.0079C18.2986 16.6607 19.0833 16.9871 20 16.9871Z" fill="#777777"/>
</svg>
